<mxfile host="Electron" modified="2024-02-28T01:18:07.975Z" agent="Mozilla/5.0 (Macintosh; Intel Mac OS X 10_15_7) AppleWebKit/537.36 (KHTML, like Gecko) draw.io/22.1.21 Chrome/120.0.6099.109 Electron/28.1.0 Safari/537.36" etag="SRwqpzU4rIxf4pUdq3eU" version="22.1.21" type="device">
  <diagram name="Page-1" id="3ummYLQG0qUT-ZFvuunQ">
    <mxGraphModel dx="1781" dy="598" grid="1" gridSize="10" guides="1" tooltips="1" connect="1" arrows="1" fold="1" page="1" pageScale="1" pageWidth="827" pageHeight="1169" math="0" shadow="0">
      <root>
        <mxCell id="0" />
        <mxCell id="1" parent="0" />
        <mxCell id="IMU-MnYxDv1fJeq-6Ja_-1" value="User Research" style="rounded=1;whiteSpace=wrap;html=1;fillColor=#60a917;fontColor=#ffffff;strokeColor=#2D7600;" vertex="1" parent="1">
          <mxGeometry x="80" y="130" width="120" height="60" as="geometry" />
        </mxCell>
        <mxCell id="IMU-MnYxDv1fJeq-6Ja_-2" value="Requiremnts&lt;br&gt;Gathering" style="rounded=1;whiteSpace=wrap;html=1;fillColor=#60a917;fontColor=#ffffff;strokeColor=#2D7600;" vertex="1" parent="1">
          <mxGeometry x="80" y="290" width="120" height="60" as="geometry" />
        </mxCell>
        <mxCell id="IMU-MnYxDv1fJeq-6Ja_-3" value="User Requrements" style="rounded=1;whiteSpace=wrap;html=1;fillColor=#1ba1e2;fontColor=#ffffff;strokeColor=#006EAF;" vertex="1" parent="1">
          <mxGeometry x="320" y="210" width="120" height="60" as="geometry" />
        </mxCell>
        <mxCell id="IMU-MnYxDv1fJeq-6Ja_-4" value="" style="endArrow=classic;html=1;rounded=0;entryX=0;entryY=0.5;entryDx=0;entryDy=0;exitX=1;exitY=0.5;exitDx=0;exitDy=0;strokeWidth=2;" edge="1" parent="1" source="IMU-MnYxDv1fJeq-6Ja_-2" target="IMU-MnYxDv1fJeq-6Ja_-3">
          <mxGeometry width="50" height="50" relative="1" as="geometry">
            <mxPoint x="390" y="340" as="sourcePoint" />
            <mxPoint x="440" y="290" as="targetPoint" />
          </mxGeometry>
        </mxCell>
        <mxCell id="IMU-MnYxDv1fJeq-6Ja_-5" value="" style="endArrow=classic;html=1;rounded=0;entryX=0;entryY=0.5;entryDx=0;entryDy=0;exitX=1;exitY=0.5;exitDx=0;exitDy=0;strokeWidth=2;" edge="1" parent="1" source="IMU-MnYxDv1fJeq-6Ja_-1" target="IMU-MnYxDv1fJeq-6Ja_-3">
          <mxGeometry width="50" height="50" relative="1" as="geometry">
            <mxPoint x="390" y="340" as="sourcePoint" />
            <mxPoint x="440" y="290" as="targetPoint" />
          </mxGeometry>
        </mxCell>
        <mxCell id="IMU-MnYxDv1fJeq-6Ja_-6" value="UX Design" style="rounded=1;whiteSpace=wrap;html=1;fillColor=#6a00ff;fontColor=#ffffff;strokeColor=#3700CC;" vertex="1" parent="1">
          <mxGeometry x="560" y="210" width="120" height="60" as="geometry" />
        </mxCell>
        <mxCell id="IMU-MnYxDv1fJeq-6Ja_-7" value="Prototyping" style="rounded=1;whiteSpace=wrap;html=1;fillColor=#d80073;fontColor=#ffffff;strokeColor=#A50040;" vertex="1" parent="1">
          <mxGeometry x="800" y="210" width="120" height="60" as="geometry" />
        </mxCell>
        <mxCell id="IMU-MnYxDv1fJeq-6Ja_-8" value="Useability Testing" style="rounded=1;whiteSpace=wrap;html=1;fillColor=#a20025;fontColor=#ffffff;strokeColor=#6F0000;" vertex="1" parent="1">
          <mxGeometry x="1040" y="210" width="120" height="60" as="geometry" />
        </mxCell>
        <mxCell id="IMU-MnYxDv1fJeq-6Ja_-9" value="Launch +&lt;br&gt;Evaluate" style="rounded=1;whiteSpace=wrap;html=1;fillColor=#fa6800;fontColor=#000000;strokeColor=#C73500;" vertex="1" parent="1">
          <mxGeometry x="1280" y="210" width="120" height="60" as="geometry" />
        </mxCell>
        <mxCell id="IMU-MnYxDv1fJeq-6Ja_-10" value="Refine Prototype" style="rounded=1;whiteSpace=wrap;html=1;fillColor=#a20025;fontColor=#ffffff;strokeColor=#6F0000;" vertex="1" parent="1">
          <mxGeometry x="1040" y="360" width="120" height="60" as="geometry" />
        </mxCell>
        <mxCell id="IMU-MnYxDv1fJeq-6Ja_-11" value="" style="endArrow=classic;html=1;rounded=0;entryX=0.5;entryY=1;entryDx=0;entryDy=0;exitX=0.5;exitY=0;exitDx=0;exitDy=0;strokeWidth=2;" edge="1" parent="1" source="IMU-MnYxDv1fJeq-6Ja_-10" target="IMU-MnYxDv1fJeq-6Ja_-8">
          <mxGeometry width="50" height="50" relative="1" as="geometry">
            <mxPoint x="920" y="340" as="sourcePoint" />
            <mxPoint x="970" y="290" as="targetPoint" />
            <Array as="points">
              <mxPoint x="1040" y="320" />
            </Array>
          </mxGeometry>
        </mxCell>
        <mxCell id="IMU-MnYxDv1fJeq-6Ja_-12" value="" style="endArrow=classic;html=1;rounded=0;entryX=0.5;entryY=0;entryDx=0;entryDy=0;exitX=0.5;exitY=1;exitDx=0;exitDy=0;strokeWidth=2;" edge="1" parent="1" source="IMU-MnYxDv1fJeq-6Ja_-8" target="IMU-MnYxDv1fJeq-6Ja_-10">
          <mxGeometry width="50" height="50" relative="1" as="geometry">
            <mxPoint x="920" y="340" as="sourcePoint" />
            <mxPoint x="970" y="290" as="targetPoint" />
            <Array as="points">
              <mxPoint x="1160" y="320" />
            </Array>
          </mxGeometry>
        </mxCell>
        <mxCell id="IMU-MnYxDv1fJeq-6Ja_-13" value="" style="endArrow=classic;html=1;rounded=0;entryX=0;entryY=0.5;entryDx=0;entryDy=0;exitX=1;exitY=0.5;exitDx=0;exitDy=0;strokeWidth=2;" edge="1" parent="1" source="IMU-MnYxDv1fJeq-6Ja_-8" target="IMU-MnYxDv1fJeq-6Ja_-9">
          <mxGeometry width="50" height="50" relative="1" as="geometry">
            <mxPoint x="920" y="340" as="sourcePoint" />
            <mxPoint x="970" y="290" as="targetPoint" />
          </mxGeometry>
        </mxCell>
        <mxCell id="IMU-MnYxDv1fJeq-6Ja_-14" value="" style="endArrow=classic;html=1;rounded=0;entryX=0;entryY=0.5;entryDx=0;entryDy=0;exitX=1;exitY=0.5;exitDx=0;exitDy=0;strokeWidth=2;" edge="1" parent="1" source="IMU-MnYxDv1fJeq-6Ja_-7" target="IMU-MnYxDv1fJeq-6Ja_-8">
          <mxGeometry width="50" height="50" relative="1" as="geometry">
            <mxPoint x="920" y="340" as="sourcePoint" />
            <mxPoint x="970" y="290" as="targetPoint" />
          </mxGeometry>
        </mxCell>
        <mxCell id="IMU-MnYxDv1fJeq-6Ja_-15" value="" style="endArrow=classic;html=1;rounded=0;entryX=0;entryY=0.5;entryDx=0;entryDy=0;exitX=1;exitY=0.5;exitDx=0;exitDy=0;strokeWidth=2;" edge="1" parent="1" source="IMU-MnYxDv1fJeq-6Ja_-6" target="IMU-MnYxDv1fJeq-6Ja_-7">
          <mxGeometry width="50" height="50" relative="1" as="geometry">
            <mxPoint x="920" y="340" as="sourcePoint" />
            <mxPoint x="970" y="290" as="targetPoint" />
          </mxGeometry>
        </mxCell>
        <mxCell id="IMU-MnYxDv1fJeq-6Ja_-16" value="" style="endArrow=classic;html=1;rounded=0;entryX=0;entryY=0.5;entryDx=0;entryDy=0;exitX=1;exitY=0.5;exitDx=0;exitDy=0;strokeWidth=2;" edge="1" parent="1" source="IMU-MnYxDv1fJeq-6Ja_-3" target="IMU-MnYxDv1fJeq-6Ja_-6">
          <mxGeometry width="50" height="50" relative="1" as="geometry">
            <mxPoint x="420" y="340" as="sourcePoint" />
            <mxPoint x="470" y="290" as="targetPoint" />
          </mxGeometry>
        </mxCell>
        <mxCell id="IMU-MnYxDv1fJeq-6Ja_-18" value="Discovery" style="rounded=1;whiteSpace=wrap;html=1;" vertex="1" parent="1">
          <mxGeometry x="-140" y="220" width="120" height="60" as="geometry" />
        </mxCell>
      </root>
    </mxGraphModel>
  </diagram>
</mxfile>
